<svg width="60" height="60" viewBox="0 0 60 60" fill="none" xmlns="http://www.w3.org/2000/svg">
<path d="M25.59 46.4164C26.4731 41.1655 30.4972 37.8348 36.5957 37.8348H52.4434C58.3581 37.8348 59.6145 33.9529 59.6145 33.9529C58.7314 39.2038 56.3253 42.5345 50.2268 42.5345H33.9702C27.2435 42.5345 25.59 46.4164 25.59 46.4164Z" fill="#DF2325"/>
<path d="M52.1703 43.5361C50.825 45.5571 49.2663 45.7349 46.3089 45.7349C43.3516 45.7349 39.8786 45.8001 35.0721 45.7349C29.8982 45.6638 25.9037 47.9988 25.5778 53.0778C26.9231 51.0569 28.6714 50.6894 31.6288 50.6894C34.5862 50.6894 36.3641 50.6243 41.1706 50.6894C46.3386 50.7665 50.3805 48.4848 52.1703 43.5361Z" fill="#EE4523"/>
<path d="M25.5895 57.2916C25.5895 55.2707 28.3572 54.1861 31.6642 54.1861C34.9713 54.1861 41.372 54.6247 44.0923 52.7045C43.3514 54.921 36.5951 60 29.8448 60C26.7866 60 25.5895 58.5243 25.5895 57.2916Z" fill="#FE5F3E"/>
<path d="M13.5837 25.5911C18.8347 26.4741 22.1654 30.4982 22.1654 36.5966V52.4441C22.1654 58.3588 26.0473 59.6152 26.0473 59.6152C20.7964 58.7321 17.4657 56.326 17.4657 50.2276V33.9712C17.4657 27.2386 13.5837 25.5911 13.5837 25.5911Z" fill="#172C4F"/>
<path d="M16.4624 52.1652C14.4414 50.8198 14.2636 49.2612 14.2636 46.3038C14.2636 43.3465 14.1984 39.8736 14.2636 35.0672C14.3347 29.8933 11.9997 25.8988 6.92059 25.5729C8.94156 26.9182 9.309 28.6665 9.309 31.6239C9.309 34.5812 9.3742 36.3591 9.309 41.1655C9.23788 46.3394 11.5137 50.3753 16.4624 52.1652Z" fill="#264A74"/>
<path d="M2.71437 25.5926C4.73534 25.5926 5.8199 28.3603 5.8199 31.6673C5.8199 34.9683 5.38133 41.3749 7.30154 44.0952C5.07908 43.3544 0 36.5981 0 29.8419C0 26.7838 1.48165 25.5926 2.71437 25.5926Z" fill="#345A87"/>
<path d="M34.4168 13.5836C33.5337 18.8345 29.5096 22.1652 23.4111 22.1652H7.55751C1.64279 22.1652 0.386353 26.0471 0.386353 26.0471C1.26941 20.7962 3.6756 17.4655 9.77405 17.4655H26.0307C32.7632 17.4655 34.4168 13.5836 34.4168 13.5836Z" fill="#DF2325"/>
<path d="M7.83575 16.4639C9.18109 14.4429 10.7398 14.2651 13.6971 14.2651C16.6545 14.2651 20.1275 14.1999 24.9339 14.2651C30.1078 14.3363 34.1023 12.0012 34.4283 6.92218C33.083 8.94312 31.3346 9.31057 28.3773 9.31057C25.4199 9.31057 23.6419 9.37576 18.8355 9.31057C13.6675 9.23352 9.62558 11.5152 7.83575 16.4639Z" fill="#EE4523"/>
<path d="M34.4178 2.70841C34.4178 4.72935 31.6501 5.81391 28.3431 5.81391C25.036 5.81391 18.6353 5.37535 15.915 7.29554C16.6559 5.07902 23.4122 0 30.1625 0C33.2206 0 34.4178 1.4757 34.4178 2.70841Z" fill="#FE5F3E"/>
<path d="M46.4228 34.4093C41.1719 33.5263 37.8411 29.5022 37.8411 23.4038V7.55628C37.8411 1.64162 33.9592 0.385193 33.9592 0.385193C39.2102 1.26824 42.5409 3.67441 42.5409 9.77279V26.0292C42.5409 32.7618 46.4228 34.4093 46.4228 34.4093Z" fill="#172C4F"/>
<path d="M43.5425 7.83496C45.5635 9.18028 45.7413 10.739 45.7413 13.6963C45.7413 16.6536 45.8065 20.1266 45.7413 24.933C45.6702 30.1068 48.0053 34.1013 53.0843 34.4272C51.0634 33.0819 50.6959 31.3336 50.6959 28.3763C50.6959 25.4189 50.6307 23.641 50.6959 18.8346C50.767 13.6607 48.4912 9.62477 43.5425 7.83496Z" fill="#264A74"/>
<path d="M57.2915 34.4094C55.2705 34.4094 54.1859 31.6417 54.1859 28.3347C54.1859 25.0336 54.6245 18.6271 52.7043 15.9068C54.9208 16.6476 59.9999 23.4038 59.9999 30.1541C60.0058 33.2181 58.5242 34.4094 57.2915 34.4094Z" fill="#345A87"/>
</svg>
