<svg width="852" height="689" viewBox="0 0 852 689" fill="none" xmlns="http://www.w3.org/2000/svg">
<g filter="url(#filter0_i_10_94)">
<path fill-rule="evenodd" clip-rule="evenodd" d="M425.433 680.206C529.67 650.756 444.103 573.601 480.476 525.513C524.66 467.098 873.186 393.384 850.434 296.798C781.956 142.994 576.156 236.059 524.454 180.514C474.331 126.665 386.424 42.235 318.183 14.7108C252.865 -11.6348 112.989 -10.9907 91.1671 115.785C77.2497 211.144 120.633 234.434 89.6705 283.159C56.8859 334.752 5.34095 377.522 0.901119 438.473C-3.91048 504.526 15.1547 577.788 65.0352 621.353C113.584 663.756 186.811 646.033 250.446 656.425C309.998 666.15 370.439 705.063 425.433 680.206Z" fill="#162C4E"/>
</g>
<defs>
<filter id="filter0_i_10_94" x="0.180786" y="0.944092" width="851.319" height="691.427" filterUnits="userSpaceOnUse" color-interpolation-filters="sRGB">
<feFlood flood-opacity="0" result="BackgroundImageFix"/>
<feBlend mode="normal" in="SourceGraphic" in2="BackgroundImageFix" result="shape"/>
<feColorMatrix in="SourceAlpha" type="matrix" values="0 0 0 0 0 0 0 0 0 0 0 0 0 0 0 0 0 0 127 0" result="hardAlpha"/>
<feOffset dy="4"/>
<feGaussianBlur stdDeviation="15"/>
<feComposite in2="hardAlpha" operator="arithmetic" k2="-1" k3="1"/>
<feColorMatrix type="matrix" values="0 0 0 0 0 0 0 0 0 0 0 0 0 0 0 0 0 0 1 0"/>
<feBlend mode="normal" in2="shape" result="effect1_innerShadow_10_94"/>
</filter>
</defs>
</svg>
